<svg xmlns="http://www.w3.org/2000/svg" width="150" height="87" viewBox="0 0 150 87">
    <g fill="none" fill-rule="evenodd">
        <path fill="#11100A" d="M148.729 46L149 81.22c0 2.64-2.15 4.78-4.801 4.78L1 85.708V46h147.729zM77.91 32.61c1.841 2.728 4.905 2.375 4.905 2.375H84L76.328 23 74 26.577a856.635 856.635 0 0 1 3.91 6.032M72.055 16h-6.086L59 35h4.041l6.177-16.191s1.563 2.23 3.434 4.912L75 20.296 72.055 16z"/>
        <path fill="#11100A" d="M85.957 35H90l-6.973-19h-6.083L74 20.296l2.347 3.425 3.433-4.913L85.957 35zM72.677 23.001L72.676 23 65 34.985h1.185s3.063.352 4.906-2.375c.356-.567 2.044-3.165 3.909-6.026l-2.329-3.575.006-.008z"/>
        <path fill="#11100A" d="M74.493 26.5l.007.009.007-.009c-.004-.003-.005-.006-.007-.009-.001.003-.004.006-.007.009M76.502 23.503h.001l-.005-.006h-.001z"/>
        <path fill="#FFF" d="M102.043 74.377l1.615-5.05 1.603 5.05h-3.218zm1.64-7.377c-.3 0-.537.007-.723.021-.176 0-.319.027-.424.061a.37.37 0 0 0-.218.15.792.792 0 0 0-.123.248l-3.5 10.546c-.07.216-.115.387-.13.512-.014.131 0 .233.06.307.06.066.166.11.318.13.152.014.36.025.633.025.245 0 .452-.005.6-.021.16-.01.282-.03.36-.061a.366.366 0 0 0 .181-.14.71.71 0 0 0 .101-.22l.713-2.32h4.267l.76 2.385a.646.646 0 0 0 .09.192c.034.052.096.087.18.12.088.03.215.04.382.044.166.016.403.021.7.021.287 0 .51-.01.672-.025.164-.01.283-.05.341-.113.067-.066.09-.167.07-.29a3.081 3.081 0 0 0-.125-.525l-3.51-10.543a.786.786 0 0 0-.133-.272c-.046-.07-.127-.12-.241-.15a1.68 1.68 0 0 0-.479-.06 12.456 12.456 0 0 0-.822-.022zm-8.691.056h-1.547c-.22 0-.408.026-.575.077-.16.041-.307.118-.427.227a1.454 1.454 0 0 0-.314.432 3.356 3.356 0 0 0-.243.654l-2.583 7.06-2.455-7.082a3.047 3.047 0 0 0-.244-.64c-.091-.177-.21-.32-.35-.424a1.208 1.208 0 0 0-.498-.227 2.77 2.77 0 0 0-.692-.077h-1.512a.826.826 0 0 0-.624.249c-.16.167-.242.406-.242.716v10.595c0 .057.015.115.04.163a.442.442 0 0 0 .178.123c.089.03.201.052.341.073.14.014.32.025.526.025.22 0 .392-.01.526-.025.14-.02.255-.043.34-.073.09-.035.152-.071.178-.123a.282.282 0 0 0 .055-.163l.02-9.68 3.17 9.667c.018.07.052.128.104.176a.651.651 0 0 0 .21.13c.093.031.215.056.354.066.136.014.302.025.505.025.202 0 .366-.005.509-.021.14-.004.254-.018.339-.05a.648.648 0 0 0 .223-.122.482.482 0 0 0 .114-.204l3.307-9.666v9.68c0 .056.015.114.05.162.036.052.09.088.176.123.08.03.19.052.33.073.14.014.318.025.527.025.218 0 .396-.01.536-.025.14-.02.249-.043.33-.073.087-.035.148-.071.176-.123a.243.243 0 0 0 .057-.163V68.021a1.284 1.284 0 0 0-.064-.402.723.723 0 0 0-.168-.306.57.57 0 0 0-.28-.188 1.05 1.05 0 0 0-.403-.069zM77.739 67c-.223 0-.404.01-.551.03-.15.018-.272.044-.36.07a.468.468 0 0 0-.192.12.296.296 0 0 0-.053.167v11.23c0 .056.019.114.053.162.04.052.103.088.192.123.088.03.205.052.349.073.15.014.339.025.562.025.227 0 .415-.01.56-.025.148-.02.265-.043.35-.073.09-.035.152-.071.183-.123a.239.239 0 0 0 .063-.163V67.387a.246.246 0 0 0-.063-.167c-.03-.046-.093-.087-.182-.12a2.088 2.088 0 0 0-.35-.07 4.26 4.26 0 0 0-.56-.03zM67.595 77.098v-3.381h1.367c.422 0 .763.044 1.027.122.261.076.477.188.65.335.167.153.294.335.38.553.091.213.132.457.132.737 0 .264-.04.498-.137.705a1.428 1.428 0 0 1-.375.518c-.157.133-.35.236-.572.31a2.67 2.67 0 0 1-.805.101h-1.667zm0-5.148v-3.084h1.166c.358 0 .642.033.85.1.218.067.392.167.537.298.14.122.245.276.314.464.067.188.103.406.103.646 0 .211-.03.416-.095.615a1.393 1.393 0 0 1-.298.505 1.35 1.35 0 0 1-.491.338c-.2.08-.464.118-.796.118h-1.29zm1.27-4.894h-2.851a.708.708 0 0 0-.488.184c-.126.117-.196.305-.196.578v10.367c0 .268.07.464.196.586a.707.707 0 0 0 .488.175h3.02c.45 0 .865-.028 1.235-.084.37-.06.727-.153 1.05-.276.33-.119.628-.28.896-.466.273-.19.51-.417.7-.68a2.93 2.93 0 0 0 .462-.909c.114-.342.17-.725.17-1.15 0-.405-.06-.768-.178-1.097a2.562 2.562 0 0 0-.482-.843 2.412 2.412 0 0 0-.711-.596 2.892 2.892 0 0 0-.885-.324 2.22 2.22 0 0 0 .667-.387c.2-.155.366-.341.499-.548.138-.21.236-.44.31-.686.072-.26.106-.529.106-.82 0-.516-.09-.96-.263-1.342a2.483 2.483 0 0 0-.764-.94c-.326-.253-.733-.433-1.217-.558-.478-.12-1.068-.184-1.763-.184zm-8.376-.035c-.213 0-.38.01-.518.027a.832.832 0 0 0-.322.077c-.089.033-.146.074-.174.126a.251.251 0 0 0-.055.16v5.58c0 .424.002.866.01 1.336.007.462.026.912.034 1.336-.11-.243-.215-.486-.323-.73l-.345-.747a13.93 13.93 0 0 0-.37-.764l-.374-.784-2.21-4.344a4.972 4.972 0 0 0-.323-.592 1.505 1.505 0 0 0-.344-.389.979.979 0 0 0-.404-.188 1.94 1.94 0 0 0-.56-.069H52.98a.89.89 0 0 0-.6.217c-.156.146-.237.359-.237.65v10.68c0 .063.013.117.044.168.03.049.085.091.158.131.076.03.187.052.316.073a5.055 5.055 0 0 0 1.026 0c.133-.02.24-.043.318-.073a.398.398 0 0 0 .163-.131.284.284 0 0 0 .051-.168v-6.216c0-.466-.004-.92-.017-1.354-.01-.44-.027-.878-.034-1.322.133.363.284.733.455 1.123.167.38.337.737.505 1.066l2.813 5.557c.15.306.283.557.395.756.12.188.242.341.365.456.13.113.266.187.41.233.15.038.334.063.538.063h.98c.112 0 .216-.016.322-.047a.75.75 0 0 0 .474-.444.865.865 0 0 0 .071-.37V67.41a.35.35 0 0 0-.04-.16.364.364 0 0 0-.159-.126.737.737 0 0 0-.304-.077 4.08 4.08 0 0 0-.504-.027zm-18.005 7.356l1.614-5.05 1.604 5.05h-3.218zM44.124 67a9.55 9.55 0 0 0-.715.021c-.183 0-.33.027-.431.061a.382.382 0 0 0-.221.15.872.872 0 0 0-.12.248l-3.5 10.546c-.07.216-.115.387-.13.512-.018.131 0 .233.06.307.058.066.162.11.312.13.153.014.366.025.635.025.252 0 .451-.005.605-.021.157-.01.276-.03.358-.061a.417.417 0 0 0 .185-.14.765.765 0 0 0 .1-.22l.714-2.32h4.262l.765 2.385a.45.45 0 0 0 .085.192c.036.052.1.087.185.12.084.03.215.04.377.044.17.016.4.021.702.021.287 0 .513-.01.675-.025.164-.01.276-.05.338-.113.067-.066.093-.167.073-.29a2.988 2.988 0 0 0-.135-.525l-3.505-10.543a.807.807 0 0 0-.129-.272.408.408 0 0 0-.248-.15 1.619 1.619 0 0 0-.47-.06c-.205-.015-.48-.022-.827-.022zM40.843 57.08h2.303l-1.15-3.875h-.012l-1.141 3.875zM45 60h-1.042l-.614-2.102h-2.699L40.043 60H39l2.348-8h1.295L45 60zM50 54v5.882h-.76l-.05-.717h-.02c-.415.6-.963.835-1.6.835-1.023 0-1.57-.729-1.57-1.788V54h.81v4.153c0 .693.476 1.082 1.073 1.082a1.34 1.34 0 0 0 1.306-1.376V54H50zM51.82 58.74v-3.543H51v-.528l.82-.161.33-1.508h.47v1.508H54v.69h-1.38v3.488c0 .441.17.56.55.56H54v.56c-.401.13-.63.194-.98.194-.96 0-1.2-.58-1.2-1.26M55.965 57c0 1.258.345 2.215 1.53 2.215 1.194 0 1.539-.957 1.539-2.215 0-1.257-.345-2.215-1.54-2.215-1.184 0-1.53.958-1.53 2.215M55 57c0-1.776.666-3 2.494-3C59.333 54 60 55.224 60 57c0 1.79-.667 3-2.506 3C55.666 60 55 58.79 55 57M61 60v-5.881h.92l.06.987h.024C62.408 54.331 63.229 54 64 54v.953h-.244c-1.102 0-1.776.695-1.776 1.519V60H61zM65 60v-5.881h.92l.06.987h.024C66.408 54.331 67.229 54 68 54v.953h-.244c-1.102 0-1.776.695-1.776 1.519V60H65zM70.036 56.631H72c.808 0 1.035-.46 1.035-.889 0-.473-.458-.934-1.3-.934-1.133 0-1.627.796-1.7 1.823zm-.012.647c.024 1.084.422 1.915 1.591 1.915h1.987v.6c-.76.15-1.397.207-1.987.207C69.698 60 69 58.789 69 57c0-1.777.819-3 2.759-3 1.507 0 2.241.854 2.241 1.708 0 .773-.362 1.57-1.76 1.57h-2.216zM79.036 54.755H77.71c-1.253 0-1.699.89-1.699 2.074 0 1.205.302 2.174 1.591 2.174.7 0 1.434-.463 1.434-1.33v-2.918zm0 4.192h-.024c-.47.575-.976.8-1.71.8-1.675 0-2.302-1.172-2.302-2.918 0-1.735.82-2.829 2.663-2.829H80v5.07c0 1.747-.7 2.93-2.627 2.93-.59 0-1.12-.056-1.89-.203v-.585h1.939c1.252 0 1.614-.913 1.614-2.052v-.213zM85 54v5.882h-.76l-.05-.717h-.02c-.415.6-.963.835-1.6.835-1.023 0-1.57-.729-1.57-1.788V54h.81v4.153c0 .693.476 1.082 1.073 1.082a1.34 1.34 0 0 0 1.306-1.376V54H85zM86 52h1.033v6.657c0 .487.128.588.967.588v.736c-1.742.114-2-.283-2-1.324V52zM92.18 57.255h-1.252c-.718 0-1.107.333-1.107 1.014 0 .693.47.982 1.076.982.565 0 1.282-.429 1.282-1.35v-.646zm-2.831-2.447v-.6c.657-.127 1.303-.208 1.836-.208 1.148 0 1.815.427 1.815 1.882v4.003h-.769l-.052-.704h-.02c-.45.647-.923.819-1.58.819-.963 0-1.579-.668-1.579-1.684 0-1.27.769-1.72 1.744-1.72h1.435v-.668c0-.717-.204-1.12-1.066-1.12h-1.764zM96.026 59.837C94.544 59.702 94 58.563 94 56.93c0-1.735.631-2.93 2.365-2.93.534 0 .948.057 1.635.204v.585h-1.635c-1.124 0-1.451.913-1.451 2.14 0 1.23.327 2.141 1.451 2.141H98v.586c-.634.136-1.037.192-1.505.203v.463c.36.045.894.27.894.81 0 .53-.37.868-1.057.868-.251 0-.48-.024-.752-.101v-.361h.644c.304 0 .49-.124.49-.383 0-.248-.175-.461-.688-.507v-.811zM102.18 57.241h-1.252c-.718 0-1.107.336-1.107 1.02 0 .696.47.986 1.076.986.565 0 1.283-.43 1.283-1.356v-.65zm-1.58-4.487c-.287 0-.575.161-.81.417l-.215-.521c.318-.441.635-.615 1.025-.615.472 0 .841.383 1.179.383.288 0 .575-.163.81-.418l.216.522c-.328.44-.636.626-1.026.626-.369 0-.85-.394-1.18-.394zm-1.251 2.03v-.604c.657-.128 1.303-.209 1.836-.209 1.148 0 1.815.43 1.815 1.89v4.023h-.769l-.05-.707h-.022c-.45.65-.923.823-1.58.823-.963 0-1.579-.672-1.579-1.693 0-1.276.769-1.727 1.744-1.727h1.436v-.672c0-.72-.205-1.125-1.067-1.125h-1.764zM105.965 57c0 1.258.345 2.215 1.53 2.215 1.194 0 1.539-.957 1.539-2.215 0-1.257-.345-2.215-1.54-2.215-1.184 0-1.53.958-1.53 2.215M105 57c0-1.776.666-3 2.494-3 1.839 0 2.506 1.224 2.506 3 0 1.79-.667 3-2.506 3-1.828 0-2.494-1.21-2.494-3"/>
        <path stroke="#11100A" stroke-width=".5" d="M144.205 86H1V5.835C1 3.164 3.146 1 5.795 1H149v80.165c0 2.671-2.147 4.835-4.795 4.835z"/>
    </g>
</svg>
