<svg xmlns="http://www.w3.org/2000/svg" width="165" height="31" viewBox="0 0 165 31">
    <g fill="#FFF" fill-rule="evenodd">
        <path d="M6.812 30.115c-3.69 0-3.65-7.077-3.65-14.613 0-7.535-.04-14.487 3.65-14.487 3.65 0 3.771 6.952 3.771 14.487 0 7.494-.08 14.613-3.77 14.613M6.852.432C2.676.432 0 6.592 0 15.46 0 24.537 2.595 30.74 6.853 30.74c4.216 0 6.893-6.203 6.893-15.03 0-9.117-2.677-15.278-6.893-15.278M55.231 30.37c-3.734 0-3.693-7.137-3.693-14.736 0-7.6-.04-14.61 3.693-14.61 3.694 0 3.817 7.01 3.817 14.61 0 7.557-.082 14.736-3.817 14.736M55.272.435c-4.226 0-6.935 6.214-6.935 15.157 0 9.152 2.626 15.408 6.935 15.408 4.268 0 6.977-6.256 6.977-15.157C62.25 6.65 59.54.435 55.272.435M79.928.861l-.006.503h3.794l.265-.002h.042l.07.002h.018c.986.023 1.15.442 1.15 2.713v.084l-.002 25.978h3.074V4.077c0-2.253.16-2.683 1.126-2.712v-.001h.041l.07-.002H89.613c.09 0 .178 0 .264.002h3.795L93.666.86H79.928zM38.647 16.273h-.69c-.474 0-1.078-.084-1.336-.21V5.289c0-3.466-.044-3.926 1.638-3.926h.647c3.19 0 3.45 3.008 3.45 7.309 0 5.221-1.38 7.476-3.709 7.602M39.337.86h-5.821V30.14h3.105v-13.49c.301.125 1.164.25 2.328.208 2.803-.125 6.598-1.42 6.598-8.27 0-5.721-3.364-7.726-6.21-7.726M23.175 16.273h-.69c-.475 0-1.08-.084-1.338-.21V5.289c0-3.466-.043-3.926 1.64-3.926h.647c3.192 0 3.451 3.008 3.451 7.309 0 5.221-1.38 7.476-3.71 7.602M23.865.86h-5.818V30.14h3.1v-13.49c.302.125 1.165.25 2.33.208 2.804-.125 6.601-1.42 6.601-8.27 0-5.721-3.365-7.726-6.213-7.726M106.933 20.652c0 5.153-.936 8.893-4.25 8.893-3.316 0-3.784-2.992-3.784-8.395V1.326h-3.06v18.827c0 7.689 1.998 10.847 6.036 10.847 3.995 0 5.865-3.2 5.865-10.058V1.326h-.807v19.326zM123.827 21.838c-2.554-6.978-4.902-13.337-7.663-20.977h-2.719l-.007 28.947h.789V4.124a1244.414 1244.414 0 0 1 9.559 26.015h.823V.86h-.782v20.977zM131.484.861l.006 29.278h2.572L134.055.86zM138.366.861l-.007.502H142.42c.938 0 1.279.292 1.279 2.798v20.921h.007v5.057h3.055v-5.895h.01V4.077c0-2.217.155-2.67 1.08-2.71v-.004h4.26l-.007-.502h-13.737zM160.36 16.398c-.632-2.15-3.73-13.47-4.336-15.537h-3.055c.914 3.124 4.438 15.468 4.855 17.082V30.14h2.945V17.65c.52-1.96 3.952-15.643 4.231-16.79h-.772c-.57 2.335-3.184 12.871-3.868 15.537M72.798 14.218h-1.913v-9.8c0-2.399.084-3.06 1.414-3.06h.665c2.286 0 2.868 2.48 2.868 6.368 0 4.26-.54 6.492-3.034 6.492m5.71 13.44a4.135 4.135 0 0 1-.257-.93c-.166-.937-.222-2.513-.424-4.942-.374-4.3-1.455-6.7-3.783-7.154 2.453-.372 4.864-2.275 4.864-7.195 0-5.583-2.993-6.576-5.445-6.576h-5.57L67.89 29.85h2.995V14.84h1.122c2.328 0 2.618 2.522 2.743 6.864.208 6.658 1.289 8.436 3.409 8.436.819 0 1.381-.456 1.762-1.205-.765-.034-1.193-.724-1.414-1.275"/>
    </g>
</svg>
