<svg xmlns="http://www.w3.org/2000/svg" xmlns:xlink="http://www.w3.org/1999/xlink" width="192" height="36" viewBox="0 0 192 36">
    <defs>
        <path id="a" d="M0 .501h15.995v35.197H0z"/>
        <path id="c" d="M.247.505h16.188V36H.247z"/>
        <path id="e" d="M.521.54h13.85V35H.52z"/>
    </defs>
    <g fill="none" fill-rule="evenodd">
        <g>
            <mask id="b" fill="#fff">
                <use xlink:href="#a"/>
            </mask>
            <path fill="#00653B" d="M7.927 34.973c-4.294 0-4.247-8.22-4.247-16.97 0-8.75-.047-16.825 4.247-16.825 4.246 0 4.388 8.074 4.388 16.825 0 8.702-.094 16.97-4.388 16.97M7.974.5C3.114.501 0 7.656 0 17.954c0 10.54 3.02 17.744 7.974 17.744 4.907 0 8.021-7.204 8.021-17.454C15.995 7.656 12.881.501 7.974.501" mask="url(#b)"/>
        </g>
        <g transform="translate(56)">
            <mask id="d" fill="#fff">
                <use xlink:href="#c"/>
            </mask>
            <path fill="#00653B" d="M8.27 35.269c-4.346 0-4.298-8.289-4.298-17.114 0-8.824-.048-16.967 4.297-16.967 4.298 0 4.441 8.143 4.441 16.967 0 8.776-.095 17.114-4.44 17.114M8.316.505C3.399.505.247 7.721.247 18.106.247 28.736 3.303 36 8.317 36c4.966 0 8.118-7.265 8.118-17.601C16.435 7.72 13.283.505 8.317.505" mask="url(#d)"/>
        </g>
        <path fill="#00653B" d="M93.007 1L93 1.584h4.415l.308-.002h.05l.082.002h.02c1.147.027 1.337.513 1.337 3.15v.098L99.21 35h3.577V4.735c0-2.617.187-3.117 1.311-3.15v-.001h.047l.082-.002h.049c.106 0 .208 0 .308.002H109L108.993 1H93.007zM44.971 18.897h-.802c-.553 0-1.255-.097-1.556-.242V6.14c0-4.026-.05-4.559 1.906-4.559h.753c3.713 0 4.014 3.492 4.014 8.487 0 6.064-1.605 8.682-4.315 8.828M45.774 1H39v34h3.613V19.333c.35.146 1.354.292 2.71.243C48.582 19.431 53 17.927 53 9.973 53 3.328 49.086 1 45.774 1M26.967 18.897h-.803c-.553 0-1.256-.097-1.556-.242V6.14c0-4.026-.05-4.559 1.907-4.559h.753c3.715 0 4.016 3.492 4.016 8.487 0 6.064-1.606 8.682-4.317 8.828M27.77 1H21v34h3.607V19.333c.352.146 1.356.292 2.712.243C30.58 19.431 35 17.927 35 9.973 35 3.328 31.084 1 27.77 1"/>
        <g transform="translate(111 1)">
            <mask id="f" fill="#fff">
                <use xlink:href="#e"/>
            </mask>
            <path fill="#00653B" d="M13.43 22.982c0 5.985-1.088 10.329-4.945 10.329-3.858 0-4.402-3.475-4.402-9.75V.54H.52v21.863C.521 31.333 2.846 35 7.545 35c4.65 0 6.826-3.716 6.826-11.68V.54h-.94v22.442z" mask="url(#f)"/>
        </g>
        <path fill="#00653B" d="M144.09 25.36c-2.972-8.103-5.705-15.488-8.917-24.36h-3.164L132 34.616h.918l.001-29.827A1443.25 1443.25 0 0 1 144.042 35H145V1h-.91v24.36zM153 1l.006 34H156l-.008-34zM161.007 1l-.007.583h4.545l.178-.001c1.092 0 1.489.34 1.489 3.25v24.296h.008V35h3.556v-6.845h.01V4.735c0-2.575.181-3.1 1.257-3.149v-.003h.152l.032-.001H177L176.993 1h-15.986zM186.6 19.043C185.867 16.546 182.26 3.4 181.557 1H178c1.064 3.627 5.164 17.963 5.65 19.837V35h3.427V20.498C187.683 18.222 191.676 2.332 192 1h-.898c-.663 2.712-3.706 14.947-4.501 18.043M84.71 16.512h-2.225V5.13c0-2.785.097-3.553 1.644-3.553h.775c2.66 0 3.336 2.88 3.336 7.395 0 4.946-.628 7.54-3.53 7.54m6.645 15.608a4.795 4.795 0 0 1-.299-1.081c-.193-1.088-.259-2.918-.493-5.74-.436-4.993-1.694-7.78-4.403-8.307 2.855-.432 5.66-2.642 5.66-8.356C91.82 2.153 88.337 1 85.484 1h-6.481L79 34.664h3.486l-.001-17.432h1.306c2.709 0 3.047 2.93 3.192 7.972.242 7.731 1.5 9.796 3.967 9.796.952 0 1.607-.53 2.05-1.399-.89-.04-1.388-.84-1.645-1.481"/>
    </g>
</svg>
