<svg xmlns="http://www.w3.org/2000/svg" width="149" height="29" viewBox="0 0 149 29">
    <g fill="#000" fill-rule="evenodd">
        <path d="M6.151 28.172c-3.332 0-3.295-6.62-3.295-13.67C2.856 7.453 2.819.95 6.151.95c3.296 0 3.406 6.504 3.406 13.553 0 7.01-.073 13.67-3.406 13.67M6.188.404C2.417.404 0 6.167 0 14.464c0 8.49 2.343 14.293 6.188 14.293 3.808 0 6.225-5.803 6.225-14.06 0-8.53-2.417-14.293-6.225-14.293M49.875 28.41c-3.371 0-3.334-6.676-3.334-13.785S46.504.957 49.875.957c3.336 0 3.447 6.56 3.447 13.668 0 7.07-.074 13.786-3.447 13.786M49.913.407c-3.817 0-6.263 5.813-6.263 14.179C43.65 23.148 46.021 29 49.913 29c3.854 0 6.3-5.852 6.3-14.179 0-8.601-2.446-14.414-6.3-14.414M72.177.806l-.005.47h3.426l.24-.002h.037l.064.002h.015c.891.022 1.039.413 1.039 2.538v.078l-.002 24.302h2.776V3.814c0-2.108.145-2.51 1.018-2.537v-.001h.036l.063-.002h.039c.082 0 .16 0 .239.002h3.427l-.006-.47H72.177zM34.9 15.223h-.623c-.429 0-.974-.079-1.207-.195V4.947c0-3.243-.04-3.673 1.479-3.673h.584c2.882 0 3.115 2.814 3.115 6.838 0 4.884-1.246 6.993-3.348 7.11M35.522.807h-5.256v27.388h2.804v-12.62c.272.118 1.05.235 2.102.196 2.53-.118 5.958-1.329 5.958-7.736 0-5.353-3.037-7.228-5.608-7.228M20.928 15.223h-.624c-.429 0-.974-.079-1.207-.195V4.947c0-3.243-.04-3.673 1.48-3.673h.584c2.883 0 3.117 2.814 3.117 6.838 0 4.884-1.246 6.993-3.35 7.11M21.55.807h-5.254v27.388h2.8v-12.62c.272.118 1.051.235 2.103.196 2.532-.118 5.961-1.329 5.961-7.736 0-5.353-3.039-7.228-5.61-7.228M96.564 19.32c0 4.82-.845 8.32-3.839 8.32-2.994 0-3.416-2.8-3.416-7.854V1.24h-2.764v17.613c0 7.192 1.804 10.147 5.45 10.147 3.609 0 5.298-2.994 5.298-9.409V1.241h-.73v18.078zM111.82 20.43C109.513 13.9 107.392 7.952 104.9.806h-2.456l-.007 27.08h.713V3.857c2.866 7.803 5.842 16.185 8.632 24.336h.744V.806h-.706V20.43zM118.734.806l.005 27.388h2.323L121.056.806zM124.948.806l-.005.469h3.665c.848 0 1.155.273 1.155 2.617v19.572h.007v4.73h2.759V22.68h.009V3.814c0-2.074.14-2.497.974-2.536v-.003h3.847l-.005-.47h-12.406zM144.81 15.34c-.57-2.011-3.368-12.601-3.915-14.534h-2.76c.826 2.922 4.008 14.47 4.385 15.98v11.408h2.66V16.512c.47-1.833 3.568-14.633 3.82-15.706h-.697c-.514 2.184-2.876 12.04-3.493 14.534M65.738 13.301h-1.726V4.133c0-2.244.075-2.863 1.276-2.863h.6c2.065 0 2.59 2.321 2.59 5.957 0 3.985-.487 6.074-2.74 6.074m5.157 12.573a3.978 3.978 0 0 1-.232-.87c-.15-.877-.2-2.35-.383-4.624-.338-4.023-1.314-6.267-3.416-6.692 2.215-.348 4.392-2.128 4.392-6.731 0-5.223-2.703-6.151-4.917-6.151h-5.03l-.002 27.118h2.706l-.001-14.042h1.014c2.102 0 2.364 2.36 2.476 6.421.188 6.228 1.164 7.891 3.079 7.891.74 0 1.247-.426 1.59-1.126-.69-.032-1.076-.678-1.276-1.194"/>
    </g>
</svg>
