<svg xmlns="http://www.w3.org/2000/svg" xmlns:xlink="http://www.w3.org/1999/xlink" viewBox="0 0 681 382.9"><defs><style>.a{fill:#fff;}.a,.b{fill-rule:evenodd;}.b{fill:#00653b;}.c{mask:url(#a);}.d{mask:url(#b);}.e{mask:url(#c);}</style><mask id="a" x="202.5" y="169.72" width="22.99" height="43.1" maskUnits="userSpaceOnUse"><g transform="translate(0 -34.05)"><path class="a" d="M202.5,203.77h23v43.09h-23Z"/></g></mask><mask id="b" x="283.85" y="169.72" width="23.27" height="43.46" maskUnits="userSpaceOnUse"><g transform="translate(0 -34.05)"><path class="a" d="M283.85,203.77h23.27v43.46H283.86Z"/></g></mask><mask id="c" x="363.25" y="170.61" width="19.91" height="42.19" maskUnits="userSpaceOnUse"><g transform="translate(0 -34.05)"><path class="a" d="M363.25,204.66h19.91v42.2H363.25Z"/></g></mask></defs><title>video-conference-call</title><path class="b" d="M0,34.05H681V417H0Z" transform="translate(0 -34.05)"/><g class="c"><path class="a" d="M213.9,246c-6.18,0-6.11-10.07-6.11-20.78s-.07-20.6,6.11-20.6,6.3,9.88,6.3,20.6S220.07,246,213.9,246m.06-42.21c-7,0-11.46,8.76-11.46,21.37,0,12.9,4.34,21.72,11.46,21.72s11.53-8.82,11.53-21.37c0-13-4.47-21.72-11.53-21.72" transform="translate(0 -34.05)"/></g><g class="d"><path class="a" d="M295.39,246.34c-6.25,0-6.18-10.15-6.18-21s-.07-20.77,6.18-20.77,6.38,10,6.38,20.77-.14,21-6.38,21m.07-42.57c-7.07,0-11.61,8.84-11.61,21.55,0,13,4.4,21.91,11.6,21.91s11.67-8.89,11.67-21.55c0-13.07-4.53-21.91-11.67-21.91" transform="translate(0 -34.05)"/></g><path class="a" d="M336.51,204v.72h7c1.65,0,1.92.62,1.92,3.85v37h5.14v-37c0-3.2.27-3.81,1.88-3.85h7.05V204ZM267,225.9h-1.15a7.33,7.33,0,0,1-2.22-.3V210.29c0-4.92-.07-5.57,2.73-5.57h1.07c5.31,0,5.74,4.27,5.74,10.38,0,7.42-2.3,10.62-6.17,10.8m1.15-21.9H258.5v41.6h5.16V226.44a13.9,13.9,0,0,0,3.87.29c4.66-.18,11-2,11-11.75,0-8.13-5.59-11-10.32-11M241,225.9h-1.14a7.41,7.41,0,0,1-2.23-.3V210.29c0-4.92-.07-5.57,2.73-5.57h1.07c5.31,0,5.74,4.27,5.74,10.38,0,7.42-2.29,10.62-6.17,10.8m1.15-21.9H232.5v41.6h5.15V226.44a13.94,13.94,0,0,0,3.88.29c4.66-.18,11-2,11-11.75,0-8.13-5.6-11-10.33-11" transform="translate(0 -34.05)"/><g class="e"><path class="a" d="M381.81,232.14c0,7.33-1.57,12.65-7.11,12.65s-6.33-4.26-6.33-11.94V204.66h-5.12v26.77c0,10.94,3.34,15.43,10.1,15.43s9.81-4.55,9.81-14.3v-27.9h-1.35Z" transform="translate(0 -34.05)"/></g><path class="a" d="M410.17,233.81c-4.34-9.92-8.34-18.95-13-29.81h-4.63v41.13h1.34V208.64c5.4,11.85,11,24.58,16.26,37h1.4V204h-1.33ZM422.5,204v41.6h4V204Zm11,0v.72h6.79c1.57,0,2.14.41,2.14,4v29.73h0v7.18h5.11v-8.37h0V208.57c0-3.15.26-3.79,1.8-3.85h7.13V204Zm37.28,22.08c-1.05-3.06-6.2-19.14-7.21-22.08H458.5c1.52,4.44,7.38,22,8.07,24.28V245.6h4.9V227.86c.86-2.78,6.57-22.23,7-23.86h-1.28c-1,3.32-5.3,18.29-6.43,22.08M324.66,223h-3.18V209.06c0-3.41.14-4.35,2.35-4.35h1.1c3.8,0,4.77,3.52,4.77,9,0,6.05-.9,9.22-5,9.22m9.49,19.1a5.33,5.33,0,0,1-.43-1.32c-.27-1.33-.37-3.57-.7-7-.62-6.12-2.42-9.52-6.29-10.17,4.08-.53,8.09-3.23,8.09-10.22,0-7.94-5-9.35-9.06-9.35H316.5v41.19h5V223.86h1.87c3.86,0,4.35,3.59,4.55,9.76.35,9.46,2.15,12,5.67,12a3.21,3.21,0,0,0,2.93-1.71,2.8,2.8,0,0,1-2.35-1.81" transform="translate(0 -34.05)"/></svg>