<svg xmlns="http://www.w3.org/2000/svg" xmlns:xlink="http://www.w3.org/1999/xlink" width="681" height="451" viewBox="0 0 681 451">
    <defs>
        <path id="a" d="M0 0h681v451H0z"/>
        <path id="b" d="M0 .723h22.993v50.76H0z"/>
        <path id="d" d="M.355.729h23.27v51.19H.356z"/>
        <path id="f" d="M.75.778h19.908v49.698H.749z"/>
    </defs>
    <g fill="none" fill-rule="evenodd">
        <use fill="#00653B" xlink:href="#a"/>
        <g transform="translate(203 194)">
            <mask id="c" fill="#fff">
                <use xlink:href="#b"/>
            </mask>
            <path fill="#FFF" d="M11.395 50.437c-6.173 0-6.105-11.853-6.105-24.474 0-12.62-.068-24.264 6.105-24.264 6.104 0 6.308 11.644 6.308 24.264 0 12.55-.136 24.474-6.308 24.474M11.463.723C4.476.723 0 11.04 0 25.893c0 15.2 4.34 25.59 11.463 25.59 7.053 0 11.53-10.39 11.53-25.171 0-15.27-4.477-25.59-11.53-25.59" mask="url(#c)"/>
        </g>
        <g transform="translate(284 194)">
            <mask id="e" fill="#fff">
                <use xlink:href="#d"/>
            </mask>
            <path fill="#FFF" d="M11.887 50.864c-6.246 0-6.178-11.954-6.178-24.681s-.068-24.47 6.178-24.47c6.178 0 6.384 11.743 6.384 24.47 0 12.657-.137 24.68-6.384 24.68M11.956.73C4.886.729.355 11.135.355 26.112c0 15.33 4.392 25.807 11.6 25.807 7.14 0 11.67-10.478 11.67-25.385 0-15.4-4.53-25.805-11.67-25.805" mask="url(#e)"/>
        </g>
        <path fill="#FFF" d="M337.01 195l-.01.841h6.347l.442-.002H343.861l.117.002h.029v.001c1.65.038 1.923.739 1.923 4.54v.14L345.927 244h5.142v-43.618c0-3.771.27-4.49 1.885-4.539v-.002h.068l.116-.002H353.21c.152 0 .298 0 .442.002H360l-.01-.841h-22.98zM267.53 220.793h-1.146c-.79 0-1.793-.14-2.222-.35V202.41c0-5.802-.073-6.57 2.723-6.57h1.075c5.305 0 5.735 5.033 5.735 12.232 0 8.738-2.294 12.512-6.165 12.722M268.677 195H259v49h5.162v-22.578c.5.21 1.934.42 3.87.35 4.659-.21 10.968-2.377 10.968-13.84 0-9.577-5.592-12.932-10.323-12.932M241.524 220.793h-1.147c-.79 0-1.794-.14-2.223-.35V202.41c0-5.802-.072-6.57 2.724-6.57h1.077c5.307 0 5.737 5.033 5.737 12.232 0 8.738-2.294 12.512-6.168 12.722M242.671 195H233v49h5.153v-22.578c.502.21 1.937.42 3.873.35 4.662-.21 10.974-2.377 10.974-13.84 0-9.577-5.595-12.932-10.329-12.932"/>
        <g transform="translate(363 195)">
            <mask id="g" fill="#fff">
                <use xlink:href="#f"/>
            </mask>
            <path fill="#FFF" d="M19.307 33.145c0 8.631-1.565 14.895-7.11 14.895-5.546 0-6.328-5.011-6.328-14.06V.778H.749V32.31c0 12.876 3.342 18.166 10.097 18.166 6.683 0 9.812-5.36 9.812-16.844V.778h-1.351v32.367z" mask="url(#g)"/>
        </g>
        <path fill="#FFF" d="M410.67 230.108c-4.344-11.68-8.338-22.322-13.033-35.108h-4.624L393 243.447h1.342l.001-42.987c5.397 13.96 11 28.957 16.256 43.54H412v-49h-1.33v35.108zM423 195l.008 49H427l-.011-49zM434.01 195l-.01.84h6.533l.257-.001c1.57 0 2.14.49 2.14 4.683v35.015h.011V244h5.111v-9.865h.016v-33.753c0-3.71.26-4.468 1.806-4.537v-.005h.22l.044-.001H457l-.01-.839h-22.98zM471.287 221.003c-1.05-3.598-6.2-22.544-7.207-26.003H459c1.52 5.228 7.378 25.888 8.072 28.59V244h4.894v-20.9c.866-3.28 6.57-26.18 7.034-28.1h-1.284c-.946 3.908-5.292 21.542-6.429 26.003M325.157 217.355h-3.179v-16.403c0-4.014.139-5.12 2.35-5.12h1.106c3.8 0 4.767 4.151 4.767 10.657 0 7.128-.898 10.866-5.044 10.866m9.493 22.494c-.218-.508-.35-1.094-.427-1.558-.276-1.567-.37-4.205-.705-8.27-.622-7.198-2.42-11.213-6.29-11.974 4.079-.623 8.087-3.807 8.087-12.042 0-9.343-4.976-11.005-9.052-11.005h-9.26L317 243.515h4.98l-.002-25.121h1.867c3.87 0 4.352 4.22 4.559 11.488.346 11.142 2.143 14.118 5.667 14.118 1.361 0 2.296-.764 2.929-2.016-1.271-.057-1.983-1.212-2.35-2.135"/>
    </g>
</svg>
