<svg xmlns="http://www.w3.org/2000/svg" width="25" height="25" viewBox="0 0 25 25">
    <g fill="none" fill-rule="evenodd">
        <path fill="#80A297" d="M7.07 18.964v-2.298H4.036a.721.721 0 0 1-.728-.713L3.31 3.974a.72.72 0 0 1 .726-.713h16.932c.4 0 .726.322.726.713v11.979a.722.722 0 0 1-.728.713H9.71L7.07 18.964zM20.968 1H4.036C2.362 1 1 2.332 1 3.974v11.979c0 1.64 1.362 2.974 3.036 2.974h.726V24l5.827-5.073h10.379c1.67 0 3.032-1.334 3.032-2.974V3.974C24 2.332 22.638 1 20.968 1z"/>
    </g>
</svg>
