<svg xmlns="http://www.w3.org/2000/svg" xmlns:xlink="http://www.w3.org/1999/xlink" width="18" height="20" viewBox="0 0 18 20">
    <defs>
        <path id="a" d="M12.333.833c.425 0 .776.318.827.73l.007.104-.001.832 1.667.001a2.5 2.5 0 0 1 2.5 2.5v11.667a2.5 2.5 0 0 1-2.5 2.5H3.167a2.5 2.5 0 0 1-2.5-2.5V5a2.5 2.5 0 0 1 2.5-2.5h1.666v-.833c0-.425.318-.776.73-.827l.104-.007c.425 0 .775.318.827.73l.006.104v.832h5v-.832c0-.39.267-.717.628-.808l.1-.02.105-.006zm3.333 8.333H2.333v7.5c0 .46.373.834.834.834h11.666c.46 0 .834-.373.834-.833l-.001-7.5zm-10.833-5H3.167A.833.833 0 0 0 2.333 5v2.5h13.333V5a.833.833 0 0 0-.833-.833h-1.667V5a.833.833 0 0 1-.728.827l-.105.006a.833.833 0 0 1-.827-.728L11.5 5v-.834h-5V5a.833.833 0 0 1-.729.827l-.104.006a.833.833 0 0 1-.827-.728L4.833 5v-.834z"/>
    </defs>
    <use fill="#9F7F65" fill-rule="nonzero" xlink:href="#a"/>
</svg>
