<svg xmlns="http://www.w3.org/2000/svg" width="11" height="19" viewBox="0 0 11 19">
    <path fill="#9F7F65" fill-rule="evenodd" d="M4.519 18.103c0 .495.435.897.974.897.54 0 .976-.402.976-.897V16.31c.118-.01.238-.007.355-.021 1.41-.167 2.758-.959 3.52-2.066.668-.968.832-2.078.464-3.124-.783-2.229-2.989-2.564-4.762-2.833-1.18-.179-2.294-.348-2.9-.977a1.482 1.482 0 0 1-.42-1.18c.041-.434.266-.82.631-1.085.68-.493 1.805-.69 2.86-.5.698.124 1.662.402 2.292 1.019.372.36.987.376 1.38.037a.848.848 0 0 0 .041-1.269C8.943 3.347 7.57 2.936 6.59 2.761c-.04-.007-.08-.003-.12-.01V.9C6.47.403 6.033 0 5.493 0S4.52.403 4.52.9v1.84c-.894.124-1.729.41-2.37.876C1.367 4.182.87 5.034.781 5.95c-.088.92.241 1.843.904 2.531 1.065 1.107 2.646 1.347 4.04 1.558 1.795.272 2.828.482 3.226 1.613.238.679-.008 1.25-.256 1.61-.452.659-1.286 1.148-2.12 1.246-1.846.216-3.729-.293-4.932-1.335a1.035 1.035 0 0 0-1.378.038.849.849 0 0 0 .04 1.27c1.1.952 2.607 1.57 4.213 1.782v1.84"/>
</svg>
