<svg xmlns="http://www.w3.org/2000/svg" xmlns:xlink="http://www.w3.org/1999/xlink" width="18" height="19" viewBox="0 0 18 19">
    <defs>
        <path id="a" d="M8.314 0a5 5 0 0 1 4.92 4.005.83.83 0 0 1-.019.406c.024.194.035.393.035.594v2.499h.917a2.5 2.5 0 0 1 2.5 2.5v5.834a2.5 2.5 0 0 1-2.5 2.5H2.5a2.5 2.5 0 0 1-2.5-2.5v-5.834a2.5 2.5 0 0 1 2.5-2.5h.833V5.005c0-.2.012-.398.035-.593a.843.843 0 0 1-.018-.407A5 5 0 0 1 8.27 0h.044zm5.853 9.171H2.5a.833.833 0 0 0-.833.833v5.834c0 .46.373.833.833.833h11.667c.46 0 .833-.373.833-.833v-5.834a.833.833 0 0 0-.833-.833zM8.29 1.667l-.11.003a3.334 3.334 0 0 0-3.176 3.152L5 5.004v2.5h6.583v-2.5a3.334 3.334 0 0 0-3.292-3.337z"/>
    </defs>
    <use fill="#9F7F65" fill-rule="nonzero" transform="translate(.667 .662)" xlink:href="#a"/>
</svg>
