<svg xmlns="http://www.w3.org/2000/svg" xmlns:xlink="http://www.w3.org/1999/xlink" width="26" height="20" viewBox="0 0 26 20">
    <defs>
        <path id="a" d="M13 0c3.661 0 6.867 1.769 9.592 4.676a22.2 22.2 0 0 1 2.44 3.132c.416.645.701 1.153.854 1.458.152.305.152.663 0 .968-.153.305-.438.813-.855 1.458a22.2 22.2 0 0 1-2.439 3.132C19.867 17.731 16.662 19.5 13 19.5c-3.661 0-6.867-1.769-9.592-4.676a22.2 22.2 0 0 1-2.44-3.132 16.453 16.453 0 0 1-.854-1.458 1.083 1.083 0 0 1 0-.968c.153-.305.438-.813.855-1.458a22.2 22.2 0 0 1 2.439-3.132C6.133 1.769 9.338 0 13 0zm0 2.167c-2.974 0-5.66 1.481-8.012 3.99A20.056 20.056 0 0 0 2.32 9.75a20.056 20.056 0 0 0 2.67 3.592c2.352 2.51 5.037 3.991 8.011 3.991 2.974 0 5.66-1.481 8.012-3.99A20.056 20.056 0 0 0 23.68 9.75a20.056 20.056 0 0 0-2.67-3.592C18.66 3.648 15.975 2.167 13 2.167zm0 3.25a4.333 4.333 0 1 1 0 8.666 4.333 4.333 0 0 1 0-8.666zm0 2.166a2.167 2.167 0 1 0 0 4.334 2.167 2.167 0 0 0 0-4.334z"/>
    </defs>
    <use fill="#CAB9AA" fill-rule="nonzero" xlink:href="#a"/>
</svg>
