<svg xmlns="http://www.w3.org/2000/svg" width="25" height="25" viewBox="0 0 25 25">
    <g fill="#004530" fill-rule="evenodd">
        <path d="M23.512 22.17c0-4.453-3.535-8.076-7.88-8.076H8.88c-4.345 0-7.881 3.623-7.881 8.075v2.307h22.513v-2.307zm-20.26 0c0-3.181 2.52-5.77 5.628-5.77h6.753c3.107 0 5.626 2.589 5.626 5.77H3.252zM18 6.999A6.004 6.004 0 0 0 11.999 1C8.689.998 6 3.692 6 6.999 6.002 10.308 8.689 13 11.999 13A6.007 6.007 0 0 0 18 6.999m-9.599 0A3.607 3.607 0 0 1 12 3.398c1.98 0 3.6 1.615 3.6 3.6a3.608 3.608 0 0 1-3.6 3.602A3.608 3.608 0 0 1 8.4 6.999"/>
    </g>
</svg>
