<svg xmlns="http://www.w3.org/2000/svg" width="25" height="25" viewBox="0 0 25 25">
    <g fill="none" fill-rule="evenodd">
      
        <g fill="#80A297">
            <path d="M24 21.778C24 17.489 20.389 14 15.95 14H9.052C4.613 14 1 17.49 1 21.778V24h23v-2.222zm-20.698 0c0-3.064 2.575-5.556 5.75-5.556h6.898c3.175 0 5.748 2.492 5.748 5.556H3.302zM19 6.999A6.004 6.004 0 0 0 12.999 1C9.689.998 7 3.692 7 6.999 7.002 10.308 9.689 13 12.999 13A6.007 6.007 0 0 0 19 6.999m-9.599 0A3.607 3.607 0 0 1 13 3.398c1.98 0 3.6 1.615 3.6 3.6a3.608 3.608 0 0 1-3.6 3.602A3.608 3.608 0 0 1 9.4 6.999"/>
        </g>
    </g>
</svg>
